<svg width="15" height="15" viewBox="0 0 15 15" fill="none" xmlns="http://www.w3.org/2000/svg">
<path d="M6.83719 9.64973C6.74765 9.73621 6.67623 9.83966 6.62709 9.95404C6.57796 10.0684 6.5521 10.1914 6.55102 10.3159C6.54993 10.4404 6.57365 10.5638 6.62079 10.6791C6.66793 10.7943 6.73754 10.899 6.82557 10.987C6.91359 11.075 7.01827 11.1446 7.13348 11.1918C7.2487 11.2389 7.37215 11.2626 7.49663 11.2615C7.62111 11.2604 7.74413 11.2346 7.8585 11.1855C7.97288 11.1363 8.07633 11.0649 8.16281 10.9754L10.9753 8.16286C11.0624 8.07584 11.1315 7.97252 11.1786 7.85879C11.2258 7.74506 11.25 7.62316 11.25 7.50005C11.25 7.37693 11.2258 7.25503 11.1786 7.1413C11.1315 7.02757 11.0624 6.92425 10.9753 6.83723L8.16281 4.02473C8.07633 3.93519 7.97288 3.86377 7.8585 3.81464C7.74413 3.7655 7.62111 3.73964 7.49663 3.73856C7.37215 3.73748 7.2487 3.7612 7.13348 3.80834C7.01827 3.85548 6.91359 3.92509 6.82557 4.01311C6.73754 4.10114 6.66793 4.20581 6.62079 4.32103C6.57365 4.43624 6.54993 4.55969 6.55102 4.68417C6.5521 4.80865 6.57796 4.93167 6.62709 5.04605C6.67623 5.16043 6.74765 5.26388 6.83719 5.35036L8.04928 6.56255L0.9375 6.56255C0.68886 6.56255 0.450403 6.66132 0.274587 6.83713C0.0987721 7.01295 0 7.2514 0 7.50005C0 7.74869 0.0987721 7.98714 0.274587 8.16296C0.450403 8.33877 0.68886 8.43755 0.9375 8.43755H8.04928L6.83719 9.64973Z" fill="#FEFEFE"/>
<path d="M14.0625 0L4.6875 0C4.43886 0 4.2004 0.0987721 4.02459 0.274587C3.84877 0.450403 3.75 0.68886 3.75 0.9375L3.75 2.8125C3.75 3.06114 3.84877 3.2996 4.02459 3.47541C4.2004 3.65123 4.43886 3.75 4.6875 3.75C4.93614 3.75 5.1746 3.65123 5.35041 3.47541C5.52623 3.2996 5.625 3.06114 5.625 2.8125V1.875L13.125 1.875L13.125 13.125L5.625 13.125V12.1875C5.625 11.9389 5.52623 11.7004 5.35041 11.5246C5.1746 11.3488 4.93614 11.25 4.6875 11.25C4.43886 11.25 4.2004 11.3488 4.02459 11.5246C3.84877 11.7004 3.75 11.9389 3.75 12.1875L3.75 14.0625C3.75 14.3111 3.84877 14.5496 4.02459 14.7254C4.2004 14.9012 4.43886 15 4.6875 15L14.0625 15C14.3111 15 14.5496 14.9012 14.7254 14.7254C14.9012 14.5496 15 14.3111 15 14.0625L15 0.9375C15 0.68886 14.9012 0.450403 14.7254 0.274587C14.5496 0.0987721 14.3111 0 14.0625 0V0Z" fill="#FEFEFE"/>
</svg>
